<svg width="18" height="16" viewBox="0 0 18 16" fill="none" xmlns="http://www.w3.org/2000/svg">
<path fill-rule="evenodd" clip-rule="evenodd" d="M7.27087 15.3042C6.70413 15.4679 6.09086 15.5507 5.44738 15.5507C4.73079 15.5507 4.042 15.4685 3.39973 15.306C2.15688 14.9924 1.23848 14.3979 0.809499 13.6318C0.624612 13.3007 0.53096 12.9478 0.53096 12.5823C0.53096 12.2058 0.620986 11.824 0.798623 11.4457C1.47956 9.99445 3.27466 9.01805 5.2631 9.01805H5.31989C5.15857 8.73347 5.08063 8.43862 5.08063 8.12866C5.08063 7.97459 5.10117 7.8175 5.14225 7.65738C3.05654 7.61025 1.49588 6.08282 1.49588 4.06901C1.49588 2.64731 2.63239 1.26187 4.2577 0.702375C4.74408 0.534406 5.24014 0.448608 5.72773 0.448608H10.188C10.3396 0.448608 10.4744 0.547094 10.5215 0.691499C10.5686 0.835299 10.5167 0.993602 10.394 1.08242L9.39646 1.80444C9.33665 1.84674 9.26475 1.8697 9.19043 1.8697H8.83334C9.29435 2.42255 9.56443 3.21103 9.56443 4.0962C9.56443 5.0732 9.07019 5.99703 8.17053 6.70092C7.4757 7.24229 7.44851 7.39153 7.44851 7.70028C7.45697 7.87006 7.94093 8.42412 8.47505 8.80175C9.71911 9.68147 10.1819 10.5449 10.1819 11.9853C10.1813 13.4904 9.03878 14.7906 7.27087 15.3042ZM17.3436 7.65376C17.3436 7.8471 17.1859 8.0042 16.9931 8.0042H14.4585V10.54C14.4585 10.7334 14.3008 10.8905 14.1093 10.8905H13.3872C13.1927 10.8905 13.0356 10.7334 13.0356 10.54V8.0042H10.5028C10.3094 8.0042 10.1523 7.84831 10.1523 7.65376V6.93294C10.1523 6.73959 10.3094 6.58129 10.5028 6.58129H13.0356V4.04786C13.0356 3.85391 13.1927 3.69742 13.3872 3.69742H14.1093C14.3008 3.69742 14.4585 3.85391 14.4585 4.04786V6.58129H16.9925C17.1853 6.58129 17.343 6.73838 17.343 6.93173L17.3436 7.65376ZM6.99059 10.4857C6.93401 10.4481 6.87661 10.4086 6.81793 10.3683L6.81781 10.3682C6.77563 10.3393 6.73278 10.3098 6.68909 10.2803C6.38517 10.1872 6.06253 10.1389 5.73203 10.1346H5.69215C4.17318 10.1346 2.84151 11.0536 2.84151 12.1025C2.84151 13.2445 3.98285 14.1369 5.43899 14.1369C7.35976 14.1369 8.33313 13.4735 8.33313 12.1684C8.33313 12.0451 8.31863 11.917 8.28782 11.7884C8.15841 11.284 7.69684 10.9685 6.99867 10.4912L6.99059 10.4857ZM5.91493 6.50516H5.91372H5.89983C4.93491 6.47495 3.9706 5.33482 3.7978 4.01524C3.70173 3.2775 3.85701 2.61408 4.22376 2.19537C4.46001 1.92468 4.77117 1.78088 5.1198 1.78088L5.15907 1.78209C6.14453 1.81049 7.0889 2.91014 7.2611 4.23094C7.35898 4.96988 7.19404 5.66592 6.82184 6.09008C6.58439 6.36197 6.27806 6.50516 5.91493 6.50516Z" fill="#222222"/>
</svg>
